<svg width="347" height="111" viewBox="0 0 347 111" fill="none" xmlns="http://www.w3.org/2000/svg">
<path d="M174.57 28.4081V49.5295C170.958 45.1027 167.721 42.0652 164.86 40.4169C162.045 38.7215 158.739 37.8739 154.939 37.8739C148.982 37.8739 144.033 39.9695 140.093 44.1608C136.153 48.3522 134.183 53.6031 134.183 59.9136C134.183 66.3654 136.083 71.6634 139.882 75.8076C143.728 79.9519 148.63 82.024 154.587 82.024C158.387 82.024 161.741 81.1998 164.649 79.5516C167.463 77.9504 170.77 74.8422 174.57 70.2271V91.2072C168.143 94.5508 161.717 96.2226 155.291 96.2226C144.69 96.2226 135.825 92.7848 128.695 85.9092C121.565 78.9865 118 70.3919 118 60.1255C118 49.8591 121.612 41.194 128.835 34.1299C136.059 27.0659 144.925 23.5339 155.432 23.5339C162.186 23.5339 168.566 25.1586 174.57 28.4081Z" fill="#1A1A1A"/>
<path d="M236.104 25.4412H252.005V94.2447H236.104V87.0394C229.584 93.1616 222.571 96.2226 215.066 96.2226C205.591 96.2226 197.758 92.7848 191.566 85.9092C185.421 78.8923 182.349 70.1329 182.349 59.631C182.349 49.3176 185.421 40.723 191.566 33.8474C197.711 26.9717 205.403 23.5339 214.644 23.5339C222.618 23.5339 229.771 26.8305 236.104 33.4235V25.4412ZM198.531 59.631C198.531 66.2241 200.29 71.5928 203.809 75.737C207.42 79.9283 211.97 82.024 217.458 82.024C223.322 82.024 228.059 79.999 231.671 75.9489C235.283 71.7576 237.089 66.436 237.089 59.9842C237.089 53.5324 235.283 48.2109 231.671 44.0196C228.059 39.9224 223.369 37.8739 217.599 37.8739C212.158 37.8739 207.608 39.946 203.949 44.0902C200.337 48.2815 198.531 53.4618 198.531 59.631Z" fill="#1A1A1A"/>
<path d="M283.988 40.2756V94.2447H268.157V40.2756H261.403V25.4412H268.157L283.988 0.222656V25.4412H296.301V40.2756H283.988Z" fill="#1A1A1A"/>
<path d="M342.567 37.1675L329.48 44.1608C327.416 39.9224 324.86 37.8032 321.811 37.8032C320.357 37.8032 319.114 38.2977 318.082 39.2867C317.05 40.2285 316.534 41.453 316.534 42.96C316.534 45.5972 319.583 48.2109 325.681 50.801C334.077 54.4272 339.729 57.7709 342.638 60.8319C345.546 63.893 347 68.0137 347 73.194C347 79.8341 344.561 85.3912 339.683 89.865C334.945 94.1034 329.222 96.2226 322.515 96.2226C311.022 96.2226 302.884 90.595 298.1 79.3397L311.609 73.0527C313.485 76.3492 314.916 78.4449 315.901 79.3397C317.824 81.1292 320.122 82.024 322.796 82.024C328.143 82.024 330.817 79.5751 330.817 74.6774C330.817 71.8518 328.753 69.2146 324.625 66.7657C323.031 65.9651 321.436 65.1881 319.841 64.4346C318.246 63.6811 316.628 62.904 314.986 62.1034C310.389 59.843 307.153 57.5825 305.276 55.322C302.884 52.4493 301.688 48.7525 301.688 44.2315C301.688 38.2506 303.728 33.3058 307.809 29.397C311.984 25.4883 317.05 23.5339 323.007 23.5339C331.779 23.5339 338.299 28.0784 342.567 37.1675Z" fill="#1A1A1A"/>
<path d="M62 31L80 13V31V44.5V61.75V110.5H14L62.75 61.75H44L35 52.75L35.011 52.7279V40H35L44 31L62 13V31Z" fill="#1A1A1A"/>
<path d="M80 110.5L98 92.5V110.5H80Z" fill="#1A1A1A"/>
<path fill-rule="evenodd" clip-rule="evenodd" d="M60.0001 35.8284V19.6716L71.5001 8.17156V24.3284L60.0001 35.8284ZM24.5111 52.7279V40L51.5001 13V23.5L35.0111 40V52.7279L42.0001 59.75H31.5001L24.5111 52.7279ZM37.0111 51.9023L46.8124 61.75H30.6689L22.5111 53.5536V39.1718L53.5001 8.17017V24.328L37.0111 40.828V51.9023ZM67.5785 59.75L16.8285 110.5H0.671631L51.4216 59.75H67.5785ZM69.5001 23.5L62.0001 31V20.5L69.5001 13V23.5ZM52.2501 61.75H62.7501L16.0001 108.5H5.50006L52.2501 61.75Z" fill="#1A1A1A"/>
<path fill-rule="evenodd" clip-rule="evenodd" d="M88.5001 90.0858V105H86.5001V94.9142L79.7072 101.707L78.293 100.293L88.5001 90.0858Z" fill="#1A1A1A"/>
</svg>
