<svg width="348" height="106" viewBox="0 0 348 106" fill="none" xmlns="http://www.w3.org/2000/svg">
<path d="M59.0001 26L77.0001 8V26V39.5V56.75V105.5H11L59.7501 56.75H41L32 47.75L32.0111 47.7279V35H32L41 26L59.0001 8V26Z" fill="white"/>
<path d="M77.0001 105.5L95.0001 87.5V105.5H77.0001Z" fill="white"/>
<path d="M66.5001 18.5L59.0001 26V15.5L66.5001 8V18.5Z" fill="#6FE910"/>
<path d="M77.0001 95L84.5001 87.5V98L77.0001 105.5V95Z" fill="#6FE910"/>
<path d="M48.5001 18.5L32.0001 35H32.0111V47.7279L32.0001 47.75L41.0001 56.75H30.5001L21.5 47.75L21.5111 47.7279V35H21.5L48.5001 8V18.5Z" fill="#6FE910"/>
<path d="M49.2501 56.75H59.7501L11 105.5H0.500046L49.2501 56.75Z" fill="#6FE910"/>
<path d="M175.57 28.4081V49.5295C171.958 45.1027 168.721 42.0652 165.86 40.4169C163.046 38.7215 159.739 37.8739 155.939 37.8739C149.982 37.8739 145.033 39.9695 141.093 44.1608C137.153 48.3522 135.183 53.6031 135.183 59.9136C135.183 66.3654 137.083 71.6634 140.882 75.8076C144.728 79.9519 149.63 82.024 155.587 82.024C159.387 82.024 162.741 81.1998 165.649 79.5516C168.463 77.9504 171.77 74.8422 175.57 70.2271V91.2072C169.143 94.5508 162.717 96.2226 156.291 96.2226C145.69 96.2226 136.825 92.7848 129.695 85.9092C122.565 78.9865 119 70.3919 119 60.1255C119 49.8591 122.612 41.194 129.836 34.1299C137.059 27.0659 145.925 23.5339 156.432 23.5339C163.186 23.5339 169.566 25.1586 175.57 28.4081Z" fill="white"/>
<path d="M237.104 25.4412H253.005V94.2447H237.104V87.0394C230.584 93.1616 223.571 96.2226 216.066 96.2226C206.591 96.2226 198.758 92.7848 192.566 85.9092C186.421 78.8923 183.349 70.1329 183.349 59.631C183.349 49.3176 186.421 40.723 192.566 33.8474C198.711 26.9717 206.403 23.5339 215.644 23.5339C223.618 23.5339 230.771 26.8305 237.104 33.4235V25.4412ZM199.532 59.631C199.532 66.2241 201.291 71.5928 204.809 75.737C208.42 79.9283 212.97 82.024 218.458 82.024C224.322 82.024 229.059 79.999 232.671 75.9489C236.283 71.7576 238.089 66.436 238.089 59.9842C238.089 53.5324 236.283 48.2109 232.671 44.0196C229.059 39.9224 224.369 37.8739 218.599 37.8739C213.158 37.8739 208.608 39.946 204.949 44.0902C201.337 48.2815 199.532 53.4618 199.532 59.631Z" fill="white"/>
<path d="M284.988 40.2756V94.2447H269.157V40.2756H262.403V25.4412H269.157L284.988 0.222656V25.4412H297.301V40.2756H284.988Z" fill="white"/>
<path d="M343.567 37.1675L330.48 44.1608C328.416 39.9224 325.86 37.8032 322.811 37.8032C321.357 37.8032 320.114 38.2977 319.082 39.2867C318.05 40.2285 317.534 41.453 317.534 42.96C317.534 45.5972 320.583 48.2109 326.681 50.801C335.077 54.4272 340.729 57.7709 343.638 60.8319C346.546 63.893 348 68.0137 348 73.194C348 79.8341 345.561 85.3912 340.683 89.865C335.945 94.1034 330.222 96.2226 323.515 96.2226C312.023 96.2226 303.884 90.595 299.1 79.3397L312.609 73.0527C314.485 76.3492 315.916 78.4449 316.901 79.3397C318.824 81.1292 321.122 82.024 323.796 82.024C329.144 82.024 331.817 79.5751 331.817 74.6774C331.817 71.8518 329.753 69.2146 325.626 66.7657C324.031 65.9651 322.436 65.1881 320.841 64.4346C319.246 63.6811 317.628 62.904 315.986 62.1034C311.389 59.843 308.153 57.5825 306.276 55.322C303.884 52.4493 302.688 48.7525 302.688 44.2315C302.688 38.2506 304.729 33.3058 308.809 29.397C312.984 25.4883 318.05 23.5339 324.007 23.5339C332.779 23.5339 339.299 28.0784 343.567 37.1675Z" fill="white"/>
</svg>
