<svg width="316" height="107" viewBox="0 0 316 107" fill="none" xmlns="http://www.w3.org/2000/svg">
    <path d="M59 19L77 1V19V32.5V49.75V98.5H11L59.75 49.75H41L32 40.75L32.011 40.7279V28H32L41 19L59 1V19Z" fill="#1A1A1A"/>
    <path d="M77 98.5L95 80.5V98.5H77Z" fill="#1A1A1A"/>
    <path d="M66.5 11.5L59 19V8.5L66.5 1V11.5Z" fill="#6FE910"/>
    <path d="M77 88L84.5 80.5V91L77 98.5V88Z" fill="#6FE910"/>
    <path d="M48.5 11.5L32 28H32.011V40.7279L32 40.75L41 49.75H30.5L21.5 40.75L21.511 40.7279V28H21.5L48.5 1V11.5Z" fill="#6FE910"/>
    <path d="M49.25 49.75H59.75L11 98.5H0.499985L49.25 49.75Z" fill="#6FE910"/>
    <path d="M167.418 23.7815V41.6026C164.326 37.8676 161.556 35.3046 159.107 33.9139C156.698 32.4834 153.868 31.7682 150.616 31.7682C145.517 31.7682 141.282 33.5364 137.909 37.0728C134.537 40.6093 132.851 45.0397 132.851 50.3642C132.851 55.8079 134.477 60.2781 137.729 63.7748C141.021 67.2715 145.216 69.0199 150.315 69.0199C153.567 69.0199 156.437 68.3245 158.927 66.9338C161.335 65.5828 164.166 62.9603 167.418 59.0662V76.7682C161.917 79.5894 156.417 81 150.917 81C141.844 81 134.256 78.0993 128.154 72.298C122.051 66.457 119 59.2053 119 50.543C119 41.8808 122.091 34.5695 128.274 28.6093C134.457 22.649 142.045 19.6689 151.038 19.6689C156.819 19.6689 162.279 21.0397 167.418 23.7815Z" fill="#1A1A1A"/>
    <path d="M220.085 21.2781H233.694V79.3311H220.085V73.2517C214.504 78.4172 208.502 81 202.078 81C193.969 81 187.264 78.0993 181.965 72.298C176.705 66.3775 174.076 58.9868 174.076 50.1258C174.076 41.4238 176.705 34.1722 181.965 28.3709C187.224 22.5695 193.808 19.6689 201.717 19.6689C208.542 19.6689 214.665 22.4503 220.085 28.0132V21.2781ZM187.927 50.1258C187.927 55.6887 189.432 60.2185 192.443 63.7152C195.534 67.2517 199.429 69.0199 204.126 69.0199C209.144 69.0199 213.199 67.3113 216.291 63.894C219.382 60.3576 220.928 55.8675 220.928 50.4238C220.928 44.9801 219.382 40.4901 216.291 36.9536C213.199 33.4967 209.185 31.7682 204.246 31.7682C199.589 31.7682 195.695 33.5166 192.564 37.0132C189.472 40.5497 187.927 44.9205 187.927 50.1258Z" fill="#1A1A1A"/>
    <path d="M261.069 33.7947V79.3311H247.519V33.7947H241.738V21.2781H247.519L261.069 0V21.2781H271.607V33.7947H261.069Z" fill="#1A1A1A"/>
    <path d="M311.206 31.1722L300.005 37.0728C298.239 33.4967 296.05 31.7086 293.441 31.7086C292.196 31.7086 291.132 32.1258 290.249 32.9603C289.366 33.755 288.924 34.7881 288.924 36.0596C288.924 38.2848 291.534 40.4901 296.753 42.6755C303.939 45.7351 308.777 48.5563 311.266 51.1391C313.755 53.7219 315 57.1987 315 61.5695C315 67.1722 312.912 71.8609 308.737 75.6358C304.682 79.2119 299.784 81 294.043 81C284.207 81 277.241 76.2517 273.146 66.755L284.709 61.4503C286.315 64.2318 287.539 66 288.382 66.755C290.028 68.2649 291.996 69.0199 294.284 69.0199C298.861 69.0199 301.149 66.9536 301.149 62.8212C301.149 60.4371 299.383 58.2119 295.85 56.1457C294.485 55.4702 293.12 54.8146 291.755 54.1788C290.39 53.5431 289.005 52.8874 287.599 52.2119C283.665 50.3046 280.895 48.3974 279.289 46.4901C277.241 44.0662 276.218 40.947 276.218 37.1325C276.218 32.0861 277.964 27.9139 281.457 24.6159C285.03 21.3179 289.366 19.6689 294.465 19.6689C301.972 19.6689 307.553 23.5033 311.206 31.1722Z" fill="#1A1A1A"/>
    <path d="M123.533 98V92.9961H124.958C125.234 92.9961 125.467 93.0018 125.656 93.0132C125.847 93.0246 126.004 93.0439 126.127 93.0713C126.339 93.1214 126.528 93.208 126.695 93.3311C126.877 93.4678 127.015 93.6432 127.108 93.8574C127.206 94.0625 127.255 94.2949 127.255 94.5547C127.255 94.9398 127.16 95.2554 126.968 95.5015C126.781 95.7476 126.505 95.9082 126.138 95.9834L127.501 98H125.96L124.812 96.0415V98H123.533ZM124.812 95.3613H125.064C125.363 95.3613 125.578 95.3123 125.71 95.2144C125.845 95.105 125.912 94.9466 125.912 94.7393C125.912 94.4886 125.849 94.3109 125.724 94.2061C125.597 94.099 125.383 94.0454 125.085 94.0454H124.812V95.3613ZM128.234 98V92.9961H131.3V94.0933H129.564V94.9614H131.201V96.0347H129.564V96.8789H131.3V98H128.234ZM132.638 96.3833C132.848 96.6157 133.048 96.7878 133.24 96.8994C133.44 97.0133 133.636 97.0703 133.828 97.0703C134.008 97.0703 134.157 97.0213 134.275 96.9233C134.394 96.8254 134.453 96.7012 134.453 96.5508C134.453 96.3867 134.404 96.258 134.306 96.1646C134.201 96.0757 133.97 95.9834 133.612 95.8877C133.125 95.7555 132.78 95.5846 132.577 95.375C132.372 95.1608 132.269 94.8691 132.269 94.5C132.269 94.0215 132.43 93.6318 132.751 93.3311C133.068 93.028 133.483 92.8765 133.995 92.8765C134.285 92.8765 134.547 92.9141 134.781 92.9893C135.027 93.0645 135.261 93.1761 135.482 93.3242L135.055 94.3052C134.904 94.1753 134.745 94.075 134.576 94.0044C134.412 93.9383 134.252 93.9053 134.094 93.9053C133.935 93.9053 133.802 93.9451 133.694 94.0249C133.592 94.1001 133.541 94.2004 133.541 94.3257C133.541 94.4465 133.585 94.5467 133.674 94.6265C133.767 94.7017 133.943 94.7734 134.2 94.8418C134.209 94.8441 134.217 94.8464 134.224 94.8486C134.231 94.8486 134.241 94.8509 134.255 94.8555C134.811 95.0036 135.178 95.1699 135.356 95.3545C135.472 95.4707 135.563 95.6177 135.629 95.7954C135.688 95.964 135.718 96.1554 135.718 96.3696C135.718 96.8983 135.544 97.3255 135.195 97.6514C134.844 97.9727 134.379 98.1333 133.8 98.1333C133.445 98.1333 133.127 98.0752 132.847 97.959C132.569 97.8428 132.294 97.6559 132.023 97.3984L132.638 96.3833ZM137.415 98V94.1787H136.294V92.9961H139.9V94.1787H138.778V98H137.415ZM144.507 96.1304H145.863L145.354 94.4795C145.343 94.4499 145.321 94.3678 145.289 94.2334C145.251 94.0762 145.215 93.9338 145.183 93.8062C145.151 93.9224 145.124 94.0397 145.101 94.1582C145.065 94.2721 145.034 94.3792 145.009 94.4795L144.507 96.1304ZM142.596 98L144.322 92.9961H146.031L147.76 98H146.404L146.151 97.1045H144.213L143.953 98H142.596ZM149.731 98H148.452V92.9961H149.878C150.431 92.9961 150.824 93.0234 151.057 93.0781C151.285 93.1374 151.475 93.2308 151.628 93.3584C151.81 93.5111 151.95 93.7002 152.048 93.9258C152.146 94.1559 152.195 94.4123 152.195 94.6948C152.195 94.9956 152.146 95.2576 152.048 95.481C151.961 95.7065 151.821 95.8934 151.628 96.0415C151.489 96.1509 151.321 96.2295 151.125 96.2773C150.95 96.3252 150.644 96.3491 150.209 96.3491H149.977H149.731V98ZM149.731 95.2485H149.99C150.314 95.2485 150.543 95.2018 150.677 95.1084C150.807 95.0218 150.872 94.8703 150.872 94.6538C150.872 94.4465 150.809 94.2983 150.681 94.2095C150.556 94.1183 150.33 94.0728 150.004 94.0728H149.731V95.2485ZM153.133 98V92.9961H154.511V98H153.133ZM158.229 98V92.9961H161.295V94.0933H159.558V94.9614H161.196V96.0347H159.558V98H158.229ZM162.209 92.9961H163.576V95.4297C163.576 95.8011 163.585 96.0586 163.603 96.2021C163.626 96.373 163.657 96.5029 163.696 96.5918C163.744 96.7217 163.834 96.8174 163.966 96.8789C164.098 96.9495 164.257 96.9849 164.444 96.9849C164.629 96.9849 164.787 96.9495 164.919 96.8789C165.04 96.8197 165.131 96.724 165.193 96.5918C165.229 96.5007 165.259 96.3708 165.282 96.2021C165.302 96.0654 165.312 95.8079 165.312 95.4297V95.0879V92.9961H166.669V95.6416C166.669 96.1839 166.636 96.5872 166.57 96.8516C166.509 97.1136 166.397 97.3381 166.235 97.5249C166.058 97.7323 165.822 97.8838 165.528 97.9795C165.236 98.082 164.875 98.1333 164.444 98.1333C164.004 98.1333 163.642 98.082 163.357 97.9795C163.068 97.8838 162.832 97.7323 162.65 97.5249C162.493 97.3426 162.381 97.1182 162.315 96.8516C162.244 96.5827 162.209 96.1794 162.209 95.6416V95.1221V92.9961ZM171.822 98H167.399L169.925 94.0796H167.898V92.9961H172.109L169.59 96.9097H171.822V98ZM176.769 98H172.346L174.872 94.0796H172.845V92.9961H177.056L174.537 96.9097H176.769V98ZM177.813 98V92.9961H180.879V94.0933H179.143V94.9614H180.78V96.0347H179.143V96.8789H180.879V98H177.813ZM181.995 98V92.9961H183.42C183.696 92.9961 183.928 93.0018 184.117 93.0132C184.309 93.0246 184.466 93.0439 184.589 93.0713C184.801 93.1214 184.99 93.208 185.156 93.3311C185.339 93.4678 185.476 93.6432 185.57 93.8574C185.668 94.0625 185.717 94.2949 185.717 94.5547C185.717 94.9398 185.621 95.2554 185.43 95.5015C185.243 95.7476 184.966 95.9082 184.599 95.9834L185.963 98H184.421L183.273 96.0415V98H181.995ZM183.273 95.3613H183.526C183.824 95.3613 184.04 95.3123 184.172 95.2144C184.306 95.105 184.374 94.9466 184.374 94.7393C184.374 94.4886 184.311 94.3109 184.186 94.2061C184.058 94.099 183.845 94.0454 183.546 94.0454H183.273V95.3613ZM190.423 96.1304H191.78L191.271 94.4795C191.259 94.4499 191.238 94.3678 191.206 94.2334C191.167 94.0762 191.132 93.9338 191.1 93.8062C191.068 93.9224 191.041 94.0397 191.018 94.1582C190.981 94.2721 190.95 94.3792 190.925 94.4795L190.423 96.1304ZM188.512 98L190.238 92.9961H191.947L193.677 98H192.32L192.067 97.1045H190.129L189.869 98H188.512ZM194.369 98V92.9961H195.685L197.575 95.5698C197.623 95.6405 197.683 95.7464 197.756 95.8877C197.849 96.07 197.941 96.258 198.029 96.4517C197.995 96.1896 197.976 96.0062 197.971 95.9014C197.958 95.7373 197.951 95.5926 197.951 95.4673V92.9961H199.26V98H197.951L196.061 95.416C196.033 95.3796 195.973 95.2725 195.88 95.0947C195.798 94.9489 195.706 94.7643 195.606 94.541C195.629 94.7188 195.651 94.9033 195.671 95.0947C195.68 95.3089 195.685 95.4536 195.685 95.5288V98H194.369ZM200.547 98V92.9961H201.589C202.377 92.9961 202.928 93.0326 203.24 93.1055C203.564 93.1784 203.846 93.3003 204.088 93.4712C204.407 93.6899 204.647 93.9725 204.809 94.3188C204.973 94.6675 205.055 95.0617 205.055 95.5015C205.055 95.9412 204.973 96.3354 204.809 96.6841C204.647 97.0259 204.407 97.3084 204.088 97.5317C203.837 97.7026 203.561 97.8211 203.26 97.8872C202.96 97.9624 202.479 98 201.818 98H201.589H200.547ZM201.897 96.8789H202.126C202.663 96.8789 203.054 96.7673 203.298 96.5439C203.544 96.3252 203.667 95.9777 203.667 95.5015C203.667 95.0275 203.544 94.6777 203.298 94.4521C203.052 94.2266 202.661 94.1138 202.126 94.1138H201.897V96.8789ZM208.527 98V92.9961H209.843L211.733 95.5698C211.781 95.6405 211.841 95.7464 211.914 95.8877C212.008 96.07 212.099 96.258 212.188 96.4517C212.154 96.1896 212.134 96.0062 212.13 95.9014C212.116 95.7373 212.109 95.5926 212.109 95.4673V92.9961H213.418V98H212.109L210.219 95.416C210.192 95.3796 210.131 95.2725 210.038 95.0947C209.956 94.9489 209.865 94.7643 209.764 94.541C209.787 94.7188 209.809 94.9033 209.829 95.0947C209.839 95.3089 209.843 95.4536 209.843 95.5288V98H208.527ZM214.705 98V92.9961H217.771V94.0933H216.035V94.9614H217.672V96.0347H216.035V96.8789H217.771V98H214.705ZM221.266 96.1577V95.1084H223.945C223.945 95.1562 223.947 95.1938 223.952 95.2212V95.4023C223.952 96.266 223.726 96.9336 223.275 97.4053C222.82 97.8815 222.178 98.1196 221.351 98.1196C220.957 98.1196 220.597 98.0592 220.271 97.9385C219.956 97.8177 219.674 97.6309 219.423 97.3779C219.184 97.1341 219.001 96.8516 218.873 96.5303C218.805 96.3594 218.754 96.1885 218.723 96.0176C218.691 95.8444 218.675 95.6724 218.675 95.5015C218.675 95.1323 218.738 94.7894 218.866 94.4727C218.994 94.165 219.184 93.8825 219.437 93.625C219.678 93.3835 219.966 93.1989 220.298 93.0713C220.626 92.946 220.977 92.8833 221.351 92.8833C221.839 92.8833 222.272 92.9813 222.65 93.1772C222.771 93.2365 222.889 93.3105 223.005 93.3994C223.124 93.486 223.232 93.5828 223.33 93.6899C223.43 93.797 223.521 93.9132 223.603 94.0386L222.421 94.606C222.28 94.4123 222.121 94.2676 221.946 94.1719C221.766 94.0785 221.567 94.0317 221.351 94.0317C220.941 94.0317 220.621 94.1673 220.391 94.4385C220.158 94.7074 220.042 95.0799 220.042 95.5562C220.042 96.0347 220.158 96.4106 220.391 96.6841C220.621 96.9552 220.941 97.0908 221.351 97.0908C221.7 97.0908 221.988 97.0042 222.216 96.8311C222.453 96.6602 222.588 96.4357 222.622 96.1577H221.266ZM226.319 96.1304H227.676L227.166 94.4795C227.155 94.4499 227.133 94.3678 227.101 94.2334C227.063 94.0762 227.027 93.9338 226.996 93.8062C226.964 93.9224 226.936 94.0397 226.913 94.1582C226.877 94.2721 226.846 94.3792 226.821 94.4795L226.319 96.1304ZM224.408 98L226.134 92.9961H227.843L229.573 98H228.216L227.963 97.1045H226.025L225.765 98H224.408ZM230.986 98V94.1787H229.865V92.9961H233.471V94.1787H232.35V98H230.986ZM234.385 98V92.9961H235.762V98H234.385ZM238.508 98L236.41 92.9961H237.859L238.86 95.7954C238.86 95.7954 238.864 95.8114 238.871 95.8433C238.88 95.8729 238.895 95.9264 238.915 96.0039C238.942 96.1224 238.98 96.2762 239.028 96.4653C239.057 96.3286 239.093 96.1919 239.134 96.0552C239.163 95.9207 239.186 95.8341 239.202 95.7954L240.197 92.9961H241.646L239.547 98H238.508ZM242.263 98V92.9961H245.329V94.0933H243.592V94.9614H245.23V96.0347H243.592V96.8789H245.329V98H242.263ZM249.57 98V94.1787H248.449V92.9961H252.055V94.1787H250.934V98H249.57ZM252.935 98V92.9961H256.001V94.0933H254.264V94.9614H255.902V96.0347H254.264V96.8789H256.001V98H252.935ZM257.339 96.3833C257.548 96.6157 257.749 96.7878 257.94 96.8994C258.141 97.0133 258.337 97.0703 258.528 97.0703C258.708 97.0703 258.857 97.0213 258.976 96.9233C259.094 96.8254 259.154 96.7012 259.154 96.5508C259.154 96.3867 259.105 96.258 259.007 96.1646C258.902 96.0757 258.67 95.9834 258.313 95.8877C257.825 95.7555 257.48 95.5846 257.277 95.375C257.072 95.1608 256.969 94.8691 256.969 94.5C256.969 94.0215 257.13 93.6318 257.451 93.3311C257.768 93.028 258.183 92.8765 258.696 92.8765C258.985 92.8765 259.247 92.9141 259.482 92.9893C259.728 93.0645 259.961 93.1761 260.182 93.3242L259.755 94.3052C259.605 94.1753 259.445 94.075 259.277 94.0044C259.113 93.9383 258.952 93.9053 258.795 93.9053C258.635 93.9053 258.502 93.9451 258.395 94.0249C258.292 94.1001 258.241 94.2004 258.241 94.3257C258.241 94.4465 258.285 94.5467 258.374 94.6265C258.468 94.7017 258.643 94.7734 258.901 94.8418C258.91 94.8441 258.918 94.8464 258.925 94.8486C258.931 94.8486 258.942 94.8509 258.955 94.8555C259.511 95.0036 259.878 95.1699 260.056 95.3545C260.172 95.4707 260.263 95.6177 260.329 95.7954C260.389 95.964 260.418 96.1554 260.418 96.3696C260.418 96.8983 260.244 97.3255 259.895 97.6514C259.544 97.9727 259.079 98.1333 258.501 98.1333C258.145 98.1333 257.827 98.0752 257.547 97.959C257.269 97.8428 256.995 97.6559 256.723 97.3984L257.339 96.3833ZM262.115 98V94.1787H260.994V92.9961H264.6V94.1787H263.479V98H262.115ZM265.514 98V92.9961H266.891V98H265.514ZM268.205 98V92.9961H269.521L271.411 95.5698C271.459 95.6405 271.52 95.7464 271.593 95.8877C271.686 96.07 271.777 96.258 271.866 96.4517C271.832 96.1896 271.813 96.0062 271.808 95.9014C271.794 95.7373 271.787 95.5926 271.787 95.4673V92.9961H273.097V98H271.787L269.897 95.416C269.87 95.3796 269.81 95.2725 269.716 95.0947C269.634 94.9489 269.543 94.7643 269.443 94.541C269.466 94.7188 269.487 94.9033 269.508 95.0947C269.517 95.3089 269.521 95.4536 269.521 95.5288V98H268.205ZM276.762 96.1577V95.1084H279.442C279.442 95.1562 279.444 95.1938 279.449 95.2212V95.4023C279.449 96.266 279.223 96.9336 278.772 97.4053C278.316 97.8815 277.675 98.1196 276.848 98.1196C276.453 98.1196 276.093 98.0592 275.767 97.9385C275.453 97.8177 275.17 97.6309 274.92 97.3779C274.681 97.1341 274.497 96.8516 274.37 96.5303C274.301 96.3594 274.251 96.1885 274.219 96.0176C274.187 95.8444 274.171 95.6724 274.171 95.5015C274.171 95.1323 274.235 94.7894 274.363 94.4727C274.49 94.165 274.681 93.8825 274.934 93.625C275.175 93.3835 275.462 93.1989 275.795 93.0713C276.123 92.946 276.474 92.8833 276.848 92.8833C277.335 92.8833 277.768 92.9813 278.146 93.1772C278.267 93.2365 278.386 93.3105 278.502 93.3994C278.62 93.486 278.729 93.5828 278.827 93.6899C278.927 93.797 279.018 93.9132 279.1 94.0386L277.917 94.606C277.776 94.4123 277.618 94.2676 277.442 94.1719C277.262 94.0785 277.064 94.0317 276.848 94.0317C276.437 94.0317 276.117 94.1673 275.887 94.4385C275.655 94.7074 275.538 95.0799 275.538 95.5562C275.538 96.0347 275.655 96.4106 275.887 96.6841C276.117 96.9552 276.437 97.0908 276.848 97.0908C277.196 97.0908 277.484 97.0042 277.712 96.8311C277.949 96.6602 278.085 96.4357 278.119 96.1577H276.762ZM283.618 98V94.1787H282.497V92.9961H286.103V94.1787H284.982V98H283.618ZM292.12 95.5083C292.12 95.8706 292.055 96.209 291.925 96.5234C291.795 96.8311 291.602 97.1113 291.344 97.3643C291.089 97.6104 290.797 97.7995 290.469 97.9316C290.125 98.0661 289.785 98.1333 289.447 98.1333C289.105 98.1333 288.765 98.0661 288.425 97.9316C288.09 97.7972 287.801 97.6081 287.557 97.3643C287.311 97.1296 287.117 96.847 286.976 96.5166C286.839 96.193 286.771 95.8569 286.771 95.5083C286.771 95.1597 286.839 94.8236 286.976 94.5C287.117 94.1696 287.311 93.887 287.557 93.6523C287.808 93.4017 288.097 93.2103 288.425 93.0781C288.744 92.9482 289.085 92.8833 289.447 92.8833C289.81 92.8833 290.153 92.9494 290.476 93.0815C290.8 93.2114 291.088 93.4017 291.341 93.6523C291.596 93.903 291.791 94.1855 291.925 94.5C292.055 94.8145 292.12 95.1506 292.12 95.5083ZM289.447 96.978C289.823 96.978 290.138 96.8379 290.391 96.5576C290.516 96.4186 290.608 96.2625 290.667 96.0894C290.727 95.9162 290.756 95.7225 290.756 95.5083C290.756 95.0913 290.632 94.7415 290.384 94.459C290.131 94.1787 289.819 94.0386 289.447 94.0386C289.067 94.0386 288.753 94.1787 288.507 94.459C288.261 94.7393 288.138 95.089 288.138 95.5083C288.138 95.9435 288.259 96.2956 288.501 96.5645C288.749 96.8402 289.064 96.978 289.447 96.978ZM298.325 95.5083C298.325 95.8706 298.26 96.209 298.13 96.5234C298.001 96.8311 297.807 97.1113 297.549 97.3643C297.294 97.6104 297.003 97.7995 296.674 97.9316C296.33 98.0661 295.99 98.1333 295.652 98.1333C295.311 98.1333 294.97 98.0661 294.63 97.9316C294.295 97.7972 294.006 97.6081 293.762 97.3643C293.516 97.1296 293.322 96.847 293.181 96.5166C293.044 96.193 292.976 95.8569 292.976 95.5083C292.976 95.1597 293.044 94.8236 293.181 94.5C293.322 94.1696 293.516 93.887 293.762 93.6523C294.013 93.4017 294.302 93.2103 294.63 93.0781C294.949 92.9482 295.29 92.8833 295.652 92.8833C296.015 92.8833 296.358 92.9494 296.681 93.0815C297.005 93.2114 297.293 93.4017 297.546 93.6523C297.801 93.903 297.996 94.1855 298.13 94.5C298.26 94.8145 298.325 95.1506 298.325 95.5083ZM295.652 96.978C296.028 96.978 296.343 96.8379 296.596 96.5576C296.721 96.4186 296.813 96.2625 296.873 96.0894C296.932 95.9162 296.961 95.7225 296.961 95.5083C296.961 95.0913 296.837 94.7415 296.589 94.459C296.336 94.1787 296.024 94.0386 295.652 94.0386C295.272 94.0386 294.959 94.1787 294.712 94.459C294.466 94.7393 294.343 95.089 294.343 95.5083C294.343 95.9435 294.464 96.2956 294.706 96.5645C294.954 96.8402 295.27 96.978 295.652 96.978ZM299.393 98V92.9961H300.757V96.8311H302.452V98H299.393Z" fill="#1A1A1A"/>
    <path d="M311.667 95.3333L316 91V99H308L311.667 95.3333Z" fill="#00FF00"/>
</svg>
